name ./resultDataOpenSim/trcMotMarkerGrf/sub06/grf-05-06.mot
datacolumns 19
datarows 15
range 0.52000000 0.57600000
endheader

                time	     ground_force_vx	     ground_force_vy	     ground_force_vz	     ground_force_px	     ground_force_py	     ground_force_pz	   l_ground_force_vx	   l_ground_force_vy	   l_ground_force_vz	   l_ground_force_px	   l_ground_force_py	   l_ground_force_pz	     ground_torque_x	     ground_torque_y	     ground_torque_z	   l_ground_torque_x	   l_ground_torque_y	   l_ground_torque_z	
          0.52000000	         52.94826652	        355.47095217	         -1.09950368	         -0.79892645	          0.00000000	          0.09887384	          0.00000000	          0.00000000	          0.00000000	          0.00000000	          0.00000000	          0.00000000	          0.00000000	          2.64955392	          0.00000000	          0.00000000	          0.00000000	          0.00000000	
          0.52400000	         58.13888384	        374.34689399	         -0.20051339	         -0.79962040	          0.00000000	          0.09855328	          0.00000000	          0.00000000	          0.00000000	          0.00000000	          0.00000000	          0.00000000	          0.00000000	          2.78906762	          0.00000000	          0.00000000	          0.00000000	          0.00000000	
          0.52800000	         63.01950785	        393.94339098	         -0.80549522	         -0.79999558	          0.00000000	          0.09847853	          0.00000000	          0.00000000	          0.00000000	          0.00000000	          0.00000000	          0.00000000	          0.00000000	          2.83764590	          0.00000000	          0.00000000	          0.00000000	          0.00000000	
          0.53200000	         67.58073841	        413.98945855	         -2.94037204	         -0.80002145	          0.00000000	          0.09862089	          0.00000000	          0.00000000	          0.00000000	          0.00000000	          0.00000000	          0.00000000	          0.00000000	          2.78411672	          0.00000000	          0.00000000	          0.00000000	          0.00000000	
          0.53600000	         71.89994218	        434.27355655	         -6.42143192	         -0.79973053	          0.00000000	          0.09893167	          0.00000000	          0.00000000	          0.00000000	          0.00000000	          0.00000000	          0.00000000	          0.00000000	          2.63185331	          0.00000000	          0.00000000	          0.00000000	          0.00000000	
          0.54000000	         76.12099765	        454.63385756	        -10.88373328	         -0.79919125	          0.00000000	          0.09935640	          0.00000000	          0.00000000	          0.00000000	          0.00000000	          0.00000000	          0.00000000	          0.00000000	          2.39818551	          0.00000000	          0.00000000	          0.00000000	          0.00000000	
          0.54400000	         80.42518538	        474.93247336	        -15.83814156	         -0.79848668	          0.00000000	          0.09984380	          0.00000000	          0.00000000	          0.00000000	          0.00000000	          0.00000000	          0.00000000	          0.00000000	          2.11121498	          0.00000000	          0.00000000	          0.00000000	          0.00000000	
          0.54800000	         85.00541715	        495.03848678	        -20.75106368	         -0.79769705	          0.00000000	          0.10034860	          0.00000000	          0.00000000	          0.00000000	          0.00000000	          0.00000000	          0.00000000	          0.00000000	          1.80465649	          0.00000000	          0.00000000	          0.00000000	          0.00000000	
          0.55200000	         90.04484803	        514.82461622	        -25.13375351	         -0.79688887	          0.00000000	          0.10083273	          0.00000000	          0.00000000	          0.00000000	          0.00000000	          0.00000000	          0.00000000	          0.00000000	          1.51172394	          0.00000000	          0.00000000	          0.00000000	          0.00000000	
          0.55600000	         95.69352013	        534.17214201	        -28.62308467	         -0.79611669	          0.00000000	          0.10126378	          0.00000000	          0.00000000	          0.00000000	          0.00000000	          0.00000000	          0.00000000	          0.00000000	          1.25930423	          0.00000000	          0.00000000	          0.00000000	          0.00000000	
          0.56000000	        102.04530971	        552.97497438	        -31.03448318	         -0.79541973	          0.00000000	          0.10161896	          0.00000000	          0.00000000	          0.00000000	          0.00000000	          0.00000000	          0.00000000	          0.00000000	          1.06362096	          0.00000000	          0.00000000	          0.00000000	          0.00000000	
          0.56400000	        109.12421143	        571.13569996	        -32.37776907	         -0.79481500	          0.00000000	          0.10189160	          0.00000000	          0.00000000	          0.00000000	          0.00000000	          0.00000000	          0.00000000	          0.00000000	          0.92826149	          0.00000000	          0.00000000	          0.00000000	          0.00000000	
          0.56800000	        116.88679089	        588.56041021	        -32.83775573	         -0.79430388	          0.00000000	          0.10208838	          0.00000000	          0.00000000	          0.00000000	          0.00000000	          0.00000000	          0.00000000	          0.00000000	          0.84489773	          0.00000000	          0.00000000	          0.00000000	          0.00000000	
          0.57200000	        125.23951428	        605.16116151	        -32.72254087	         -0.79387983	          0.00000000	          0.10222258	          0.00000000	          0.00000000	          0.00000000	          0.00000000	          0.00000000	          0.00000000	          0.00000000	          0.79642323	          0.00000000	          0.00000000	          0.00000000	          0.00000000	
          0.57600000	        134.06013235	        620.86154551	        -32.38732857	         -0.79352918	          0.00000000	          0.10230686	          0.00000000	          0.00000000	          0.00000000	          0.00000000	          0.00000000	          0.00000000	          0.00000000	          0.76171508	          0.00000000	          0.00000000	          0.00000000	          0.00000000	
